<svg width="133" height="134" viewBox="0 0 133 134" fill="none" xmlns="http://www.w3.org/2000/svg">
<path fill-rule="evenodd" clip-rule="evenodd" d="M8.70634e-08 46V67.0455H20.6136V74.7273H8.70634e-08L0 95.2296C0.289649 94.6368 0.630558 94.0678 1.02273 93.5227C2.55303 91.4167 4.65152 89.7727 7.31818 88.5909C9.98485 87.4091 13.0152 86.8182 16.4091 86.8182C19.8636 86.8182 22.8788 87.4091 25.4545 88.5909C28.0455 89.7727 30.0606 91.4167 31.5 93.5227C32.9394 95.6288 33.6818 98.0682 33.7273 100.841H24.2955C24.1136 99.0076 23.3333 97.5833 21.9545 96.5682C20.5758 95.553 18.7045 95.0455 16.3409 95.0455C14.7348 95.0455 13.3788 95.2727 12.2727 95.7273C11.1667 96.1667 10.3182 96.7803 9.72727 97.5682C9.15152 98.3561 8.86364 99.25 8.86364 100.25C8.83333 101.083 9.00758 101.811 9.38636 102.432C9.7803 103.053 10.3182 103.591 11 104.045C11.6818 104.485 12.4697 104.871 13.3636 105.205C14.2576 105.523 15.2121 105.795 16.2273 106.023L20.4091 107.023C22.4394 107.477 24.303 108.083 26 108.841C27.697 109.598 29.1667 110.53 30.4091 111.636C31.6515 112.742 32.6136 114.045 33.2955 115.545C33.9924 117.045 34.3485 118.765 34.3636 120.705C34.3485 123.553 33.6212 126.023 32.1818 128.114C30.7576 130.189 28.697 131.803 26 132.955C24.9858 133.384 23.8925 133.733 22.7201 134H40.983V87.4545H50.8239V134H58.9205V87.4545H89.7386V95.5682H68.7614V106.659H87.6932V114.773H68.7614V134H108.835V95.5682H94.5852V87.4545H132.812V95.5682H118.562V134H133V0H72.4091V7.56818H50.8864V18.6591H70.7955V26.7727H50.8864V37.8864H72.5V46H41.0455V0H22.6329C24.0017 0.312603 25.2604 0.759573 26.4091 1.34091C28.9091 2.58333 30.8106 4.34848 32.1136 6.63636C33.4318 8.90909 34.0909 11.5833 34.0909 14.6591C34.0909 17.75 33.4242 20.4091 32.0909 22.6364C30.7576 24.8485 28.8258 26.5455 26.2955 27.7273C26.1567 27.7925 26.0164 27.8558 25.8744 27.9174L35.75 46H24.8864L16.0698 29.5H8.88636V46H8.70634e-08ZM8.88636 21.5909H15.5682C17.447 21.5909 19.0076 21.3333 20.25 20.8182C21.4924 20.303 22.4167 19.5303 23.0227 18.5C23.6439 17.4697 23.9545 16.1894 23.9545 14.6591C23.9545 13.1136 23.6439 11.8106 23.0227 10.75C22.4167 9.68939 21.4848 8.88636 20.2273 8.34091C18.9848 7.7803 17.4167 7.5 15.5227 7.5H8.88636V21.5909ZM9.88709 134C8.67963 133.728 7.54302 133.372 6.47727 132.932C3.71798 131.786 1.55889 130.092 1.11876e-07 127.851L8.70634e-08 134H9.88709ZM8.70634e-08 119.386H7.06818C7.17424 120.947 7.62121 122.25 8.40909 123.295C9.21212 124.326 10.2803 125.106 11.6136 125.636C12.9621 126.152 14.4848 126.409 16.1818 126.409C17.8485 126.409 19.2955 126.167 20.5227 125.682C21.7652 125.197 22.7273 124.523 23.4091 123.659C24.0909 122.795 24.4318 121.803 24.4318 120.682C24.4318 119.636 24.1212 118.758 23.5 118.045C22.8939 117.333 22 116.727 20.8182 116.227C19.6515 115.727 18.2197 115.273 16.5227 114.864L11.4545 113.591C7.5303 112.636 4.43182 111.144 2.15909 109.114C1.26061 108.311 0.540915 107.398 9.34785e-08 106.375L8.70634e-08 119.386Z" fill="#D9D9D9"/>
</svg>
